<svg id="Layer_1" data-name="Layer 1" xmlns="http://www.w3.org/2000/svg" xmlns:xlink="http://www.w3.org/1999/xlink" viewBox="0 0 248.97 49.23"><defs><style>.cls-1,.cls-3{fill:#009fdd;}.cls-1,.cls-2{fill-rule:evenodd;}.cls-2{fill:#fff;}.cls-4{fill:#9d9d9c;}.cls-5{fill:url(#Degradado_sin_nombre_22);}.cls-6{fill:#894d17;}</style><linearGradient id="Degradado_sin_nombre_22" x1="155.92" y1="36.36" x2="248.56" y2="36.36" gradientUnits="userSpaceOnUse"><stop offset="0" stop-color="#1b2546"/><stop offset="1" stop-color="#1c427c"/></linearGradient></defs><path class="cls-1" d="M27.65,1S18.25.34,16.41,0s-4.78,1.38-4.62,3.54.92,6-.93,6.31-6.47-.31-7.39.16S-.54,11.89.08,15s1.39,9.85,1.39,9.85l8.78.16s.61,10.93,4.31,10.93,14,.15,14,.15L30,25.6l10.78-.31s.31-9.85.15-11.86-.77-2.92-4.62-3.38-7.7-.77-7.7-.77L27.65,1Z"/><path class="cls-2" d="M27,25.44c-.86,3-5.37,4.42-10.07,3.1s-7.83-4.87-7-7.9,5.36-4.43,10.07-3.1,7.82,4.87,7,7.9Z"/><path class="cls-2" d="M13,15.11c-.15,1.46-1.83,2.49-3.76,2.3s-3.38-1.54-3.23-3,1.83-2.49,3.76-2.3,3.38,1.54,3.23,3Z"/><path class="cls-2" d="M22,13.27c-.15,1.47-1.83,2.49-3.76,2.3S14.82,14,15,12.57s1.84-2.49,3.77-2.29,3.38,1.53,3.23,3Z"/><path class="cls-2" d="M30,15.85c-.15,1.46-1.84,2.49-3.77,2.29s-3.38-1.53-3.23-3,1.83-2.49,3.76-2.3,3.38,1.54,3.24,3Z"/><path class="cls-2" d="M34.85,22.28c-.15,1.46-1.83,2.49-3.77,2.3s-3.37-1.54-3.23-3,1.83-2.49,3.77-2.29,3.37,1.53,3.23,3Z"/><polygon class="cls-3" points="40.51 1.36 46.79 1.36 51.38 14.17 55.98 1.36 62.14 1.36 53.93 21.75 48.72 21.75 40.51 1.36 40.51 1.36"/><polygon class="cls-3" points="64.11 1.36 80.39 1.36 80.39 6.13 69.66 6.13 69.66 9.2 79.38 9.2 79.38 13.62 69.66 13.62 69.66 16.83 80.53 16.83 80.53 21.61 64.11 21.61 64.11 1.36 64.11 1.36"/><polygon class="cls-3" points="88.34 6.28 82.27 6.28 82.27 1.36 100.02 1.36 100.02 6.28 93.95 6.28 93.95 21.61 88.34 21.61 88.34 6.28 88.34 6.28"/><polygon class="cls-3" points="102.48 1.36 118.76 1.36 118.76 6.13 108.03 6.13 108.03 9.2 117.75 9.2 117.75 13.62 108.03 13.62 108.03 16.83 118.9 16.83 118.9 21.61 102.48 21.61 102.48 1.36 102.48 1.36"/><path class="cls-3" d="M131.08,11.08c1.91,0,3-.93,3-2.4V8.62c0-1.59-1.16-2.4-3-2.4h-3.67v4.86Zm-9.31-9.72h9.57c3.09,0,5.23.81,6.59,2.2a6.27,6.27,0,0,1,1.8,4.71v.06a6.4,6.4,0,0,1-4.17,6.22l4.83,7.06h-6.48l-4.07-6.14h-2.46v6.14h-5.61V1.36Z"/><polygon class="cls-3" points="142.68 1.36 148.31 1.36 148.31 21.61 142.68 21.61 142.68 1.36 142.68 1.36"/><polygon class="cls-3" points="152.02 1.36 157.25 1.36 165.58 12.06 165.58 1.36 171.13 1.36 171.13 21.61 166.21 21.61 157.57 10.5 157.57 21.61 152.02 21.61 152.02 1.36 152.02 1.36"/><path class="cls-3" d="M186.63,13.62l-2.26-5.75-2.28,5.75Zm-4.92-12.4h5.41l8.62,20.39h-6L188.25,18h-7.81L179,21.61H173.1l8.61-20.39Z"/><path class="cls-3" d="M207,11.08c1.91,0,3-.93,3-2.4V8.62c0-1.59-1.15-2.4-3-2.4h-3.68v4.86ZM197.7,1.36h9.57c3.1,0,5.24.81,6.6,2.2a6.3,6.3,0,0,1,1.79,4.71v.06a6.4,6.4,0,0,1-4.16,6.22l4.83,7.06h-6.48l-4.08-6.14h-2.46v6.14H197.7V1.36Z"/><polygon class="cls-3" points="218.61 1.36 224.25 1.36 224.25 21.61 218.61 21.61 218.61 1.36 218.61 1.36"/><path class="cls-3" d="M239.87,13.62l-2.26-5.75-2.29,5.75ZM235,1.22h5.41L249,21.61h-6L241.48,18h-7.8l-1.45,3.62h-5.9L235,1.22Z"/><path class="cls-4" d="M149,34.4a3.07,3.07,0,0,1-.19.56,1.45,1.45,0,0,1-.27.42.43.43,0,0,1-.31.16.58.58,0,0,1-.33-.08.53.53,0,0,1-.21-.21.77.77,0,0,1-.12-.31,1.53,1.53,0,0,1,0-.38,2.23,2.23,0,0,1,.08-.61,2.66,2.66,0,0,1,.21-.58,1.58,1.58,0,0,1,.31-.43.55.55,0,0,1,.38-.17.44.44,0,0,1,.25.08.58.58,0,0,1,.17.23,1,1,0,0,1,.1.33,1.73,1.73,0,0,1,0,.41,3.05,3.05,0,0,1-.07.58Zm-4.58-.21a2.61,2.61,0,0,1-.08.38,3.47,3.47,0,0,1-.17.45,1.71,1.71,0,0,1-.25.37.46.46,0,0,1-.33.15.27.27,0,0,1-.18,0,.33.33,0,0,1-.11-.15.59.59,0,0,1-.06-.2.86.86,0,0,1,0-.23,2.48,2.48,0,0,1,0-.45,3,3,0,0,1,.16-.48,4,4,0,0,1,.24-.46,2.33,2.33,0,0,1,.31-.38,1.49,1.49,0,0,1,.35-.27.77.77,0,0,1,.38-.1l-.29,1.42Zm-.54,3.94a5,5,0,0,1-.16.51c-.07.17-.14.34-.22.5a3.7,3.7,0,0,1-.28.44,1.37,1.37,0,0,1-.33.31.68.68,0,0,1-.38.12c-.13,0-.2-.06-.2-.18a.76.76,0,0,1,.08-.28,3.2,3.2,0,0,1,.19-.36,4.7,4.7,0,0,1,.3-.41,4.47,4.47,0,0,1,.35-.41,4.4,4.4,0,0,1,.38-.37,2.49,2.49,0,0,1,.38-.3c0,.12-.06.27-.11.43Zm-3.9-2.9a.66.66,0,0,1-.11.24.43.43,0,0,1-.19.16.57.57,0,0,1-.31.07.5.5,0,0,1-.27-.08,1.13,1.13,0,0,1-.21-.15l-.17-.16,0,0,0-.13L139.79,34s0,.12.06.19l.06.23c0,.08,0,.17,0,.26a2.46,2.46,0,0,1,0,.26,1.36,1.36,0,0,1,0,.29Zm-4.18-1a2.85,2.85,0,0,1-.09.38,2.45,2.45,0,0,1-.17.45,1.41,1.41,0,0,1-.25.37.42.42,0,0,1-.32.15.26.26,0,0,1-.18,0,.44.44,0,0,1-.12-.15.59.59,0,0,1-.06-.2,1.64,1.64,0,0,1,0-.23,1.86,1.86,0,0,1,.06-.45,3,3,0,0,1,.16-.48,2.25,2.25,0,0,1,.24-.46,2.28,2.28,0,0,1,.3-.38,1.73,1.73,0,0,1,.35-.27.81.81,0,0,1,.39-.1l-.29,1.42Zm14.55-1.82a3.45,3.45,0,0,0-.74-.38,2.67,2.67,0,0,0-.86-.14,2.25,2.25,0,0,0-1,.19,2.08,2.08,0,0,0-.73.54,2.49,2.49,0,0,0-.45.8,2.84,2.84,0,0,0-.16,1,3.21,3.21,0,0,0,.06.63,4.8,4.8,0,0,1-.45.5,3.23,3.23,0,0,1-.38.32,2.29,2.29,0,0,1-.31.2q.13-.75.24-1.41c0-.19.05-.38.08-.57s0-.38.07-.55,0-.34.06-.48,0-.25,0-.33a.78.78,0,0,0,0-.24.24.24,0,0,0-.08-.13.13.13,0,0,0-.11-.06.27.27,0,0,0-.13,0h-.34l-.12,0a.24.24,0,0,1-.09-.08.76.76,0,0,1-.08-.11.52.52,0,0,0-.11-.1.29.29,0,0,0-.17,0,1.65,1.65,0,0,0-.65.14,2.59,2.59,0,0,0-.61.38,3.22,3.22,0,0,0-.53.57,4.29,4.29,0,0,0-.42.68,4,4,0,0,0-.28.75,2.45,2.45,0,0,0-.08.37l-.16.08-.41.2a2.32,2.32,0,0,0-.38.21,4.36,4.36,0,0,0,0-.54,2.25,2.25,0,0,0-.06-.4c0-.11-.05-.22-.07-.3s-.05-.18-.07-.25a1.05,1.05,0,0,1-.06-.24,1.27,1.27,0,0,1,0-.28.55.55,0,0,1,.11-.16l.21-.24a2.56,2.56,0,0,0,.2-.26.51.51,0,0,0,.09-.26.76.76,0,0,0,0-.14.32.32,0,0,0-.06-.15.57.57,0,0,0-.19-.12,1,1,0,0,0-.35,0,.71.71,0,0,0-.26,0,.78.78,0,0,0-.2.11.79.79,0,0,0-.17.14,1,1,0,0,0-.14.17c-.21.26-.38.47-.5.64l-.33.44-.23.31c-.07.08-.14.17-.22.25a4,4,0,0,1-.29.28c-.11.11-.26.24-.44.39l-.11.09-.16.13-.13.18a.42.42,0,0,0-.06.21l-.19.11a.54.54,0,0,1-.21,0,.17.17,0,0,1-.18-.13,1.46,1.46,0,0,1,0-.35,3.75,3.75,0,0,1,0-.56c0-.2.07-.4.11-.59s.07-.39.1-.58a3.36,3.36,0,0,0,0-.51,1.44,1.44,0,0,0,0-.24.32.32,0,0,0-.08-.13.14.14,0,0,0-.11-.06.32.32,0,0,0-.14,0h-.33l-.12,0a.39.39,0,0,1-.1-.08.76.76,0,0,0-.08-.11.32.32,0,0,0-.1-.1.3.3,0,0,0-.18,0,1.69,1.69,0,0,0-.65.14,2.75,2.75,0,0,0-.6.38,3.27,3.27,0,0,0-.54.57,4.29,4.29,0,0,0-.42.68,4,4,0,0,0-.28.75,4.54,4.54,0,0,0-.09.51l-.1,0-.17,0a1.84,1.84,0,0,1-.56-.08,1.07,1.07,0,0,1-.38-.21,1,1,0,0,1-.23-.31,1.1,1.1,0,0,1-.07-.36,1,1,0,0,1,0-.24,1.09,1.09,0,0,1,.09-.23c.13-.25.28-.51.42-.79l.45-.85.42-.84c.13-.28.25-.53.35-.77s.18-.46.24-.65a1.73,1.73,0,0,0,.1-.47.75.75,0,0,0-.1-.39.32.32,0,0,0-.28-.15.9.9,0,0,0-.28,0,.79.79,0,0,0-.26.13.86.86,0,0,0-.2.18.76.76,0,0,0-.11.22l-3.13,6-.21-5.72a1.42,1.42,0,0,0,0-.31.49.49,0,0,0-.09-.22.38.38,0,0,0-.18-.15.78.78,0,0,0-.29,0h-.2a.4.4,0,0,0-.22.08.58.58,0,0,0-.18.24,1,1,0,0,0-.08.45c0,.13,0,.3,0,.5s0,.42,0,.66,0,.49,0,.75l.06.77c0,.25,0,.49.05.72s0,.43.05.61,0,.31,0,.42,0,.16,0,.17c0,.2,0,.41,0,.61l0,.58a3.89,3.89,0,0,0,.08.51,1.19,1.19,0,0,0,.15.4.78.78,0,0,0,.3.27,1,1,0,0,0,.47.1.84.84,0,0,0,.42-.12,1.38,1.38,0,0,0,.45-.38,3.63,3.63,0,0,0,.48-.71,11.86,11.86,0,0,0,.53-1.11,1.8,1.8,0,0,0,0,.31,1.42,1.42,0,0,0,.09.52,1.23,1.23,0,0,0,.27.39,1.12,1.12,0,0,0,.44.25,1.45,1.45,0,0,0,.57.09,1.82,1.82,0,0,0,.75-.18h0a1.38,1.38,0,0,0,.27.42,1.14,1.14,0,0,0,.39.27,1,1,0,0,0,.45.1,1.26,1.26,0,0,0,.43-.08,2,2,0,0,0,.42-.18l.37-.25a3.69,3.69,0,0,0,.28-.28,1.71,1.71,0,0,0,.37.6.74.74,0,0,0,.53.2,1.11,1.11,0,0,0,.52-.13A2.37,2.37,0,0,0,138,36l.22-.19a.61.61,0,0,0,.07.14.86.86,0,0,0,.3.3,1.44,1.44,0,0,0,.44.17,2.78,2.78,0,0,0,.52,0,4.14,4.14,0,0,0,.84-.09,7,7,0,0,0,.87-.24,5.5,5.5,0,0,0,.82-.36l.07,0a1,1,0,0,0,.22.32,1.05,1.05,0,0,0,.39.27,1,1,0,0,0,.44.1,1.17,1.17,0,0,0,.55-.15,2.08,2.08,0,0,0,.54-.37l-.13.45c-.23.19-.46.39-.68.6a7.76,7.76,0,0,0-.65.63c-.21.21-.4.43-.58.65a5.65,5.65,0,0,0-.45.62,4.08,4.08,0,0,0-.31.57,1.46,1.46,0,0,0-.11.49,1,1,0,0,0,.11.5.82.82,0,0,0,.26.29,1.13,1.13,0,0,0,.36.14l.35,0a2,2,0,0,0,.75-.14,2.13,2.13,0,0,0,.62-.4,2.77,2.77,0,0,0,.5-.61,5.81,5.81,0,0,0,.68-1.7c.09-.32.16-.66.22-1,.31-.19.61-.39.88-.59l.35-.28.35-.3.06-.06a1.54,1.54,0,0,0,.45.43,1.32,1.32,0,0,0,.73.19,1.68,1.68,0,0,0,.55-.1,1.94,1.94,0,0,0,.48-.28,1.69,1.69,0,0,0,.39-.41,2.72,2.72,0,0,0,.29-.5,2.81,2.81,0,0,0,.18-.56,2.76,2.76,0,0,0,.06-.57,2.73,2.73,0,0,0-.28-1.19l0,0,.41.29c.16.11.33.23.49.36s.32.26.47.39a2.33,2.33,0,0,1,.35.38l.09-.68a6.64,6.64,0,0,0-.56-.63,3.79,3.79,0,0,0-.65-.55Z"/><path class="cls-4" d="M153.46,35.24a.55.55,0,0,0-.17-.17A.8.8,0,0,0,153,35a.84.84,0,0,0-.27,0,.76.76,0,0,0-.21,0,.68.68,0,0,0-.2.07.64.64,0,0,0-.15.13.38.38,0,0,0-.09.18c-.07.22-.12.42-.18.61s0,.17-.07.26a2.17,2.17,0,0,1-.07.24c0,.07,0,.15-.05.21s0,.12,0,.16a.67.67,0,0,0,0,.18.37.37,0,0,0,.12.29.39.39,0,0,0,.27.11.56.56,0,0,0,.27-.08.75.75,0,0,0,.26-.22l.18-.26.21-.32.21-.33c.08-.11.14-.22.2-.32l.1-.19a.58.58,0,0,0,0-.19.4.4,0,0,0-.07-.24Z"/><polygon class="cls-5" points="155.92 23.5 163.87 34.58 157.17 49.23 247.08 49.23 241.08 42.99 248.56 23.5 240.18 25.65 159.51 25.65 155.92 23.5"/><path class="cls-2" d="M175.16,29.49a7.33,7.33,0,0,1,2.89-1.86,1.21,1.21,0,0,1,.91,2.18,5.23,5.23,0,0,0-2.24,1.61,83.94,83.94,0,0,0,3.58,12.3q2.63-2.32,3.94-12.5c.59-1.87,2.73-2,3.26-.18q2.2,9.48,3.68,12.71c1.82-1.59,3-6.22,4-13.22-1.62-.36-2.37-.91-2.23-1.65,0-1.23,2-1.3,4.1-.15l2.43-1c1.66-.47,2.2.89,1.35,1.8a9,9,0,0,1-3,1.34q-1.68,9.61-4,13.79C192,46.91,190,47,189,44.83a49.35,49.35,0,0,1-2.9-9.17q-1.51,8.19-4.06,9.91c-1.65,1.22-2.86,1.11-3.65-.33L174.29,32l-4.48-2.2a1.16,1.16,0,0,1,1-2.11,32,32,0,0,1,4.39,1.77"/><path class="cls-2" d="M226.44,32.94h-2.12c-1,0-1.28,2.08,0,2.21h2.2V42.7a3.92,3.92,0,0,1-1.73,1.38c-1.33.21-1.78,2.59.58,2.3A5.16,5.16,0,0,0,227.64,45a5.28,5.28,0,0,0,3.78,1.36c1.35,0,1.59-2,.49-2.2a3.79,3.79,0,0,1-2.82-1.33V35.13h3.73c.69,0,1-2,0-2.19h-3.63c-.37-2,0-3.21,1-3.61q1.19-.24,1.26.36c-.33.94.09,1.44,1.26,1.52q1.41,0,1.2-1.83c-.44-4-8.53-3.05-7.46,3.56"/><path class="cls-2" d="M206.93,42.66a2.94,2.94,0,0,1-2.22,1,2.38,2.38,0,0,1-2.52-.93,2.31,2.31,0,0,0,2.6,1.25,2.37,2.37,0,0,0,2.14-1.27m-4.4-6.72a3,3,0,0,1,2.33-.6,2.41,2.41,0,0,1,2.37,1.22A2.32,2.32,0,0,0,204.84,35a2.41,2.41,0,0,0-2.31.92m-3.78,3.68c.09-4.66,2.66-6.87,5.95-6.87s6,2.35,6,6.87c-.06,3.8-2.67,6.87-6,6.87s-6-2.55-5.95-6.87"/><path class="cls-6" d="M202.65,41l1.16-1.6a.59.59,0,0,1,.93-.05l1.41,1.48c.82.95.13,2.16-1.7,2.27s-2.51-1.07-1.8-2.1m1.65-3.13c0-.76.35-1.38.78-1.38s.78.62.78,1.38-.35,1.38-.78,1.38-.78-.62-.78-1.38m-2,.34c-.16-.72.05-1.37.48-1.45s.9.43,1.06,1.14-.06,1.37-.48,1.45-.9-.42-1.06-1.14m3.64.42c.33-.65.91-1,1.29-.82s.44.9.11,1.55-.9,1-1.29.83-.43-.9-.11-1.56m-5.05,1.13c-.34-.65-.3-1.33.09-1.52s1,.18,1.32.82.3,1.34-.09,1.53-1-.18-1.32-.83"/><path class="cls-2" d="M219.94,42.52a2.87,2.87,0,0,1-2.21.94,2.37,2.37,0,0,1-2.52-.93,2.3,2.3,0,0,0,2.59,1.26,2.34,2.34,0,0,0,2.14-1.27m-4.39-6.71a2.92,2.92,0,0,1,2.33-.61,2.41,2.41,0,0,1,2.36,1.22,2.31,2.31,0,0,0-2.39-1.54,2.38,2.38,0,0,0-2.3.93m-3.78,3.67c.08-4.66,2.66-6.87,5.94-6.87s6,2.35,5.95,6.87c-.06,3.8-2.66,6.87-5.95,6.87s-6-2.55-5.94-6.87"/><path class="cls-6" d="M216.15,40.67l1.16-1.6a.6.6,0,0,1,.94,0l1.41,1.47c.82,1,.13,2.17-1.7,2.28s-2.51-1.07-1.81-2.1m1.66-3.13c0-.76.35-1.38.78-1.38s.78.62.78,1.38-.35,1.38-.78,1.38-.78-.62-.78-1.38m-1.95.34c-.17-.72,0-1.37.47-1.45s.91.42,1.07,1.14-.06,1.37-.48,1.45-.9-.43-1.06-1.14m3.64.43c.33-.66.91-1,1.29-.83s.44.89.11,1.55-.91,1-1.29.83-.43-.9-.11-1.55m-5.05,1.12c-.34-.65-.3-1.33.09-1.52s1,.17,1.32.83.3,1.33-.09,1.52-1-.18-1.32-.83"/></svg>