<svg id="Layer_1" data-name="Layer 1" xmlns="http://www.w3.org/2000/svg" xmlns:xlink="http://www.w3.org/1999/xlink" viewBox="0 0 249.16 56.27"><defs><style>.cls-1,.cls-3{fill:#009fdd;}.cls-1,.cls-10,.cls-2{fill-rule:evenodd;}.cls-2{fill:#fff;}.cls-4{fill:#9d9d9c;}.cls-5{fill:url(#Degradado_sin_nombre_22);}.cls-6{fill:#894d17;}.cls-7{fill:#003f80;}.cls-8{fill:#bbc207;}.cls-9{fill:url(#Degradado_sin_nombre_22-2);}.cls-10{fill:url(#Degradado_sin_nombre_22-3);}.cls-11{fill:url(#Degradado_sin_nombre_22-4);}</style><linearGradient id="Degradado_sin_nombre_22" x1="156.04" y1="36.39" x2="248.74" y2="36.39" gradientUnits="userSpaceOnUse"><stop offset="0" stop-color="#1b2546"/><stop offset="1" stop-color="#1c427c"/></linearGradient><linearGradient id="Degradado_sin_nombre_22-2" x1="166.48" y1="54.88" x2="166.48" y2="52.37" xlink:href="#Degradado_sin_nombre_22"/><linearGradient id="Degradado_sin_nombre_22-3" x1="202.08" y1="54.9" x2="202.08" y2="52.35" xlink:href="#Degradado_sin_nombre_22"/><linearGradient id="Degradado_sin_nombre_22-4" x1="224.04" y1="54.75" x2="224.04" y2="52.62" xlink:href="#Degradado_sin_nombre_22"/></defs><path class="cls-1" d="M27.67,1S18.27.34,16.42,0s-4.78,1.38-4.63,3.54.93,6-.92,6.32-6.47-.31-7.4.15S-.54,11.9.08,15s1.39,9.86,1.39,9.86l8.78.15s.62,11,4.32,11,14,.15,14,.15L30,25.62l10.79-.31s.31-9.86.15-11.87-.77-2.92-4.62-3.39-7.71-.77-7.71-.77L27.67,1Z"/><path class="cls-2" d="M27,25.46c-.86,3-5.37,4.43-10.08,3.1s-7.83-4.87-7-7.91,5.37-4.42,10.08-3.1,7.83,4.87,7,7.91Z"/><path class="cls-2" d="M13,15.12c-.15,1.47-1.83,2.49-3.77,2.3s-3.38-1.54-3.23-3,1.83-2.49,3.77-2.3,3.38,1.54,3.23,3Z"/><path class="cls-2" d="M22,13.28c-.15,1.47-1.84,2.49-3.77,2.3S14.83,14,15,12.58s1.83-2.49,3.76-2.29,3.38,1.53,3.24,3Z"/><path class="cls-2" d="M30,15.86c-.15,1.46-1.83,2.49-3.77,2.3s-3.38-1.54-3.23-3,1.83-2.49,3.76-2.3,3.39,1.54,3.24,3Z"/><path class="cls-2" d="M34.87,22.3c-.14,1.46-1.83,2.49-3.76,2.29s-3.38-1.53-3.24-3,1.84-2.49,3.77-2.29,3.38,1.54,3.23,3Z"/><polygon class="cls-3" points="40.54 1.36 46.82 1.36 51.42 14.18 56.02 1.36 62.19 1.36 53.97 21.77 48.76 21.77 40.54 1.36 40.54 1.36"/><polygon class="cls-3" points="64.16 1.36 80.45 1.36 80.45 6.14 69.71 6.14 69.71 9.21 79.43 9.21 79.43 13.63 69.71 13.63 69.71 16.85 80.59 16.85 80.59 21.62 64.16 21.62 64.16 1.36 64.16 1.36"/><polygon class="cls-3" points="88.41 6.28 82.33 6.28 82.33 1.36 100.1 1.36 100.1 6.28 94.02 6.28 94.02 21.62 88.41 21.62 88.41 6.28 88.41 6.28"/><polygon class="cls-3" points="102.56 1.36 118.85 1.36 118.85 6.14 108.11 6.14 108.11 9.21 117.84 9.21 117.84 13.63 108.11 13.63 108.11 16.85 118.99 16.85 118.99 21.62 102.56 21.62 102.56 1.36 102.56 1.36"/><path class="cls-3" d="M131.18,11.09c1.91,0,3-.93,3-2.4V8.63c0-1.59-1.16-2.4-3-2.4h-3.68v4.86Zm-9.32-9.73h9.58c3.09,0,5.23.81,6.59,2.2a6.28,6.28,0,0,1,1.8,4.72v.06a6.41,6.41,0,0,1-4.17,6.22l4.83,7.06H134l-4.08-6.13h-2.46v6.13h-5.61V1.36Z"/><polygon class="cls-3" points="142.78 1.36 148.42 1.36 148.42 21.62 142.78 21.62 142.78 1.36 142.78 1.36"/><polygon class="cls-3" points="152.13 1.36 157.37 1.36 165.7 12.07 165.7 1.36 171.26 1.36 171.26 21.62 166.34 21.62 157.68 10.51 157.68 21.62 152.13 21.62 152.13 1.36 152.13 1.36"/><path class="cls-3" d="M186.77,13.63l-2.26-5.76-2.29,5.76ZM181.85,1.22h5.41l8.62,20.4h-6L188.39,18h-7.82l-1.44,3.62h-5.91l8.63-20.4Z"/><path class="cls-3" d="M207.17,11.09c1.91,0,3-.93,3-2.4V8.63c0-1.59-1.16-2.4-3-2.4h-3.67v4.86Zm-9.32-9.73h9.58c3.09,0,5.24.81,6.6,2.2a6.31,6.31,0,0,1,1.79,4.72v.06a6.41,6.41,0,0,1-4.16,6.22l4.83,7.06H210l-4.09-6.13h-2.45v6.13h-5.62V1.36Z"/><polygon class="cls-3" points="218.77 1.36 224.42 1.36 224.42 21.62 218.77 21.62 218.77 1.36 218.77 1.36"/><path class="cls-3" d="M240,13.63l-2.26-5.76-2.28,5.76ZM235.13,1.22h5.41l8.62,20.4h-6L241.66,18h-7.81l-1.45,3.62h-5.9l8.63-20.4Z"/><path class="cls-4" d="M149.07,34.43a2.73,2.73,0,0,1-.19.55,1.45,1.45,0,0,1-.27.42.45.45,0,0,1-.31.17.67.67,0,0,1-.33-.08.53.53,0,0,1-.21-.21.77.77,0,0,1-.12-.31,1.58,1.58,0,0,1,0-.38,2.6,2.6,0,0,1,.07-.61,2.8,2.8,0,0,1,.22-.58,1.44,1.44,0,0,1,.31-.43.51.51,0,0,1,.37-.17.38.38,0,0,1,.26.08.54.54,0,0,1,.17.22,1,1,0,0,1,.1.33,1.78,1.78,0,0,1,0,.41,3.15,3.15,0,0,1-.07.59Zm-4.58-.22a3.34,3.34,0,0,1-.09.39,2.35,2.35,0,0,1-.17.44,1.47,1.47,0,0,1-.25.38.42.42,0,0,1-.32.15.28.28,0,0,1-.18-.06.33.33,0,0,1-.12-.14.66.66,0,0,1-.06-.2,1.94,1.94,0,0,1,0-.24,1.86,1.86,0,0,1,.06-.45,3,3,0,0,1,.16-.48,2,2,0,0,1,.24-.45,2.37,2.37,0,0,1,.3-.39,1.54,1.54,0,0,1,.36-.27.85.85,0,0,1,.38-.09l-.29,1.41ZM144,38.16c0,.17-.1.34-.16.51a4.52,4.52,0,0,1-.23.5,2.72,2.72,0,0,1-.27.44,1.41,1.41,0,0,1-.34.31.64.64,0,0,1-.38.12c-.13,0-.19-.06-.19-.18a.71.71,0,0,1,.07-.28,3.42,3.42,0,0,1,.2-.36,4.49,4.49,0,0,1,.29-.41c.11-.14.23-.28.35-.41a4.54,4.54,0,0,1,.38-.38,3.27,3.27,0,0,1,.39-.29l-.11.43ZM140,35.25a.58.58,0,0,1-.1.24.48.48,0,0,1-.2.17.68.68,0,0,1-.31.06.5.5,0,0,1-.27-.07,1.16,1.16,0,0,1-.21-.16l-.16-.16,0,0,0-.13L139.9,34s0,.11,0,.18,0,.15.06.24a1.87,1.87,0,0,1,0,.25,2.45,2.45,0,0,1,0,.27,1.27,1.27,0,0,1,0,.28Zm-4.18-1a3.34,3.34,0,0,1-.09.39,2.35,2.35,0,0,1-.17.44,1.47,1.47,0,0,1-.25.38.42.42,0,0,1-.32.15.26.26,0,0,1-.18-.06.33.33,0,0,1-.12-.14.66.66,0,0,1-.06-.2,1.94,1.94,0,0,1,0-.24,1.86,1.86,0,0,1,.06-.45,3,3,0,0,1,.16-.48,2,2,0,0,1,.24-.45,2.37,2.37,0,0,1,.3-.39,1.54,1.54,0,0,1,.36-.27.85.85,0,0,1,.38-.09l-.29,1.41Zm14.56-1.81a3.05,3.05,0,0,0-.74-.38,2.43,2.43,0,0,0-.86-.15,2.26,2.26,0,0,0-1,.2,2.05,2.05,0,0,0-.73.53,2.51,2.51,0,0,0-.45.8,2.94,2.94,0,0,0-.16,1,3.36,3.36,0,0,0,.06.63c-.17.2-.32.37-.45.5a3.23,3.23,0,0,1-.38.32,2.29,2.29,0,0,1-.31.2c.09-.5.16-1,.23-1.42q0-.27.09-.57c0-.19.05-.38.07-.55s0-.33,0-.47a2.31,2.31,0,0,0,0-.34,1.44,1.44,0,0,0,0-.24.41.41,0,0,0-.08-.13.24.24,0,0,0-.11-.06l-.13,0h-.34l-.12,0a.25.25,0,0,1-.1-.08l-.08-.11a.29.29,0,0,0-.1-.09.29.29,0,0,0-.17-.05A1.74,1.74,0,0,0,144,32a2.8,2.8,0,0,0-.6.39,3.59,3.59,0,0,0-.54.56,4,4,0,0,0-.42.69,4.16,4.16,0,0,0-.28.74,2.53,2.53,0,0,0-.07.38l-.16.08-.42.19a2.22,2.22,0,0,0-.37.21c0-.21,0-.38,0-.53s0-.29-.06-.4S141,34.11,141,34s-.05-.17-.07-.25a2.1,2.1,0,0,1-.06-.24,2.13,2.13,0,0,1,0-.27.64.64,0,0,1,.11-.16,2.57,2.57,0,0,0,.21-.24c.08-.09.14-.18.21-.27a.48.48,0,0,0,.09-.26s0-.08,0-.13a.43.43,0,0,0-.07-.16.7.7,0,0,0-.18-.12,1.15,1.15,0,0,0-.36-.05.66.66,0,0,0-.25.05.68.68,0,0,0-.21.1.8.8,0,0,0-.17.15l-.14.16c-.21.26-.37.48-.5.65l-.33.43-.23.31-.22.26-.29.28-.44.38a.57.57,0,0,1-.11.1,1.53,1.53,0,0,0-.16.13.83.83,0,0,0-.13.18.37.37,0,0,0-.06.21.87.87,0,0,1-.19.1.42.42,0,0,1-.21.06.18.18,0,0,1-.18-.13,1.63,1.63,0,0,1,0-.36,3.87,3.87,0,0,1,0-.56c0-.19.07-.39.11-.59s.07-.39.1-.58a2.37,2.37,0,0,0,.05-.51,1.44,1.44,0,0,0,0-.24.41.41,0,0,0-.08-.13.24.24,0,0,0-.11-.06l-.13,0h-.34l-.12,0a.25.25,0,0,1-.1-.08l-.08-.11a.29.29,0,0,0-.1-.09.29.29,0,0,0-.17-.05,1.7,1.7,0,0,0-.66.14,2.8,2.8,0,0,0-.6.39,3.19,3.19,0,0,0-.54.56,4,4,0,0,0-.42.69,4.16,4.16,0,0,0-.28.74,5.16,5.16,0,0,0-.09.52l-.1,0a.59.59,0,0,1-.17,0,1.84,1.84,0,0,1-.56-.08,1.15,1.15,0,0,1-.38-.22.76.76,0,0,1-.23-.31.84.84,0,0,1-.07-.35,1,1,0,0,1,0-.24.92.92,0,0,1,.09-.23l.42-.79.44-.85.43-.85c.13-.27.25-.53.35-.77s.18-.46.24-.65a1.66,1.66,0,0,0,.09-.46.68.68,0,0,0-.1-.4.29.29,0,0,0-.27-.15,1,1,0,0,0-.29,0,1.19,1.19,0,0,0-.25.13.86.86,0,0,0-.2.18.76.76,0,0,0-.11.22l-3.14,6-.21-5.72a3,3,0,0,0,0-.31.73.73,0,0,0-.09-.22.49.49,0,0,0-.18-.14.63.63,0,0,0-.29-.05h-.2a.47.47,0,0,0-.22.09.56.56,0,0,0-.19.23,1.32,1.32,0,0,0-.07.45c0,.13,0,.3,0,.5s0,.42,0,.66,0,.49.05.75,0,.52,0,.77l.06.72c0,.23,0,.43,0,.61a3.32,3.32,0,0,0,0,.42,1.15,1.15,0,0,0,0,.17c0,.21,0,.41,0,.62a5.17,5.17,0,0,0,0,.57,3.49,3.49,0,0,0,.07.51,1.25,1.25,0,0,0,.16.41.73.73,0,0,0,.29.26.94.94,0,0,0,.47.1.86.86,0,0,0,.43-.11,1.52,1.52,0,0,0,.45-.38,5.4,5.4,0,0,0,.48-.71c.16-.3.34-.67.53-1.11a1.71,1.71,0,0,0,0,.31,1.36,1.36,0,0,0,.09.51,1,1,0,0,0,.27.4,1.22,1.22,0,0,0,.43.25,1.7,1.7,0,0,0,1.33-.1h0a1.43,1.43,0,0,0,.27.43,1.14,1.14,0,0,0,.39.27,1.17,1.17,0,0,0,.45.09,1.29,1.29,0,0,0,.43-.07,2.65,2.65,0,0,0,.42-.18,2.45,2.45,0,0,0,.37-.26,2.42,2.42,0,0,0,.28-.27,1.58,1.58,0,0,0,.37.59.72.72,0,0,0,.53.21,1.33,1.33,0,0,0,.53-.13,3.17,3.17,0,0,0,.49-.32l.22-.19a.64.64,0,0,0,.08.14.86.86,0,0,0,.3.3,1.28,1.28,0,0,0,.43.16,2.2,2.2,0,0,0,.53.06,4.12,4.12,0,0,0,.83-.09,5.11,5.11,0,0,0,.87-.25,6.89,6.89,0,0,0,.83-.35l.06,0a1.21,1.21,0,0,0,.22.32,1.05,1.05,0,0,0,.39.27,1.2,1.2,0,0,0,.45.09,1.15,1.15,0,0,0,.55-.14,2.6,2.6,0,0,0,.54-.37l-.13.45c-.23.18-.46.38-.69.59s-.44.42-.65.64a8.55,8.55,0,0,0-.57.65,5.81,5.81,0,0,0-.46.62,3.16,3.16,0,0,0-.3.57,1.22,1.22,0,0,0-.11.49,1,1,0,0,0,.1.5.76.76,0,0,0,.27.29,1.07,1.07,0,0,0,.35.14l.35,0a2.06,2.06,0,0,0,.76-.14,2.27,2.27,0,0,0,.62-.4,2.73,2.73,0,0,0,.49-.61,4.73,4.73,0,0,0,.39-.78,6.2,6.2,0,0,0,.3-.92c.08-.32.16-.66.22-1a9.69,9.69,0,0,0,.88-.6l.35-.27c.12-.1.24-.2.35-.31l.06,0a1.54,1.54,0,0,0,.45.43,1.41,1.41,0,0,0,.73.19,1.46,1.46,0,0,0,.55-.11,2.27,2.27,0,0,0,.48-.27,1.9,1.9,0,0,0,.39-.41,3.6,3.6,0,0,0,.29-.5,2.9,2.9,0,0,0,.18-.57,2.76,2.76,0,0,0,.06-.57,2.49,2.49,0,0,0-.07-.59,2,2,0,0,0-.21-.59l0,0c.12.07.25.17.41.28l.49.36a4.7,4.7,0,0,1,.47.4,2,2,0,0,1,.35.38l.1-.68c-.18-.22-.36-.43-.56-.64a4.21,4.21,0,0,0-.66-.54Z"/><path class="cls-4" d="M153.58,35.27a.77.77,0,0,0-.18-.18.88.88,0,0,0-.24-.11l-.27,0-.22,0a.54.54,0,0,0-.19.08.48.48,0,0,0-.16.13.56.56,0,0,0-.09.17c-.06.22-.12.43-.18.62a2.33,2.33,0,0,1-.07.25q0,.14-.06.24l-.06.22c0,.06,0,.12,0,.16a1.68,1.68,0,0,0,0,.18.37.37,0,0,0,.12.29.4.4,0,0,0,.28.1.54.54,0,0,0,.26-.07.62.62,0,0,0,.26-.23l.18-.26c.07-.1.14-.2.21-.32l.22-.33.2-.31a1.07,1.07,0,0,0,.09-.19.68.68,0,0,0,0-.19.48.48,0,0,0-.06-.24Z"/><polygon class="cls-5" points="156.04 23.51 163.99 34.61 157.28 49.27 247.26 49.27 241.26 43.03 248.74 23.51 240.35 25.67 159.62 25.67 156.04 23.51"/><path class="cls-2" d="M175.29,29.52a7.23,7.23,0,0,1,2.89-1.87,1.21,1.21,0,0,1,.91,2.18,5.29,5.29,0,0,0-2.24,1.61,85.85,85.85,0,0,0,3.58,12.32q2.64-2.34,3.94-12.52c.59-1.87,2.73-2,3.27-.18q2.21,9.5,3.68,12.72c1.82-1.59,3-6.22,4.05-13.23-1.62-.36-2.36-.9-2.23-1.65,0-1.23,2-1.3,4.1-.15l2.44-1c1.66-.47,2.19.89,1.34,1.8a9.1,9.1,0,0,1-3,1.35q-1.68,9.61-4,13.8c-1.89,2.24-3.86,2.35-4.91.15a49.73,49.73,0,0,1-2.91-9.17q-1.51,8.2-4.06,9.92t-3.65-.34l-4.07-13.22-4.48-2.2a1.16,1.16,0,0,1,1-2.11,30.85,30.85,0,0,1,4.39,1.78"/><path class="cls-2" d="M226.61,33h-2.13c-1,0-1.28,2.07,0,2.2h2.2v7.56A3.9,3.9,0,0,1,225,44.11c-1.34.21-1.78,2.59.57,2.3a5.24,5.24,0,0,0,2.28-1.36,5.23,5.23,0,0,0,3.78,1.36c1.36,0,1.59-2,.49-2.19a3.8,3.8,0,0,1-2.82-1.34V35.15H233c.68,0,1-2,0-2.18h-3.64c-.37-2,0-3.21,1-3.62.79-.16,1.21,0,1.26.37-.33.93.09,1.43,1.26,1.51q1.41.06,1.2-1.83c-.44-4-8.54-3-7.46,3.57"/><path class="cls-2" d="M207.08,42.69a2.89,2.89,0,0,1-2.22,1,2.38,2.38,0,0,1-2.52-.93,2.33,2.33,0,0,0,2.6,1.26,2.38,2.38,0,0,0,2.14-1.28M202.68,36a3,3,0,0,1,2.33-.61,2.4,2.4,0,0,1,2.37,1.23A2.31,2.31,0,0,0,205,35a2.44,2.44,0,0,0-2.31.93m-3.78,3.68c.09-4.66,2.66-6.87,5.95-6.87s6,2.34,6,6.87c-.06,3.8-2.66,6.88-6,6.88s-6-2.55-5.95-6.88"/><path class="cls-6" d="M202.8,41l1.16-1.6a.59.59,0,0,1,.93-.05l1.42,1.48c.81,1,.12,2.17-1.71,2.27S202.09,42,202.8,41m1.65-3.13c0-.76.35-1.38.78-1.38s.78.62.78,1.38-.35,1.38-.78,1.38-.78-.62-.78-1.38m-1.95.34c-.16-.72.05-1.37.48-1.45s.9.42,1.06,1.14-.06,1.36-.48,1.45-.9-.43-1.06-1.14m3.65.42c.33-.65.9-1,1.29-.82s.43.89.1,1.55-.9,1-1.29.83-.43-.9-.1-1.56m-5.06,1.13c-.34-.65-.3-1.33.09-1.53s1,.19,1.32.83.3,1.34-.09,1.53-1-.18-1.32-.83"/><path class="cls-2" d="M220.1,42.55a2.88,2.88,0,0,1-2.21,1,2.38,2.38,0,0,1-2.52-.93A2.3,2.3,0,0,0,218,43.82a2.33,2.33,0,0,0,2.14-1.27m-4.39-6.72a3,3,0,0,1,2.33-.6,2.39,2.39,0,0,1,2.37,1.22A2.33,2.33,0,0,0,218,34.9a2.42,2.42,0,0,0-2.3.93m-3.79,3.68c.09-4.66,2.67-6.87,6-6.87s6,2.34,6,6.87c-.06,3.8-2.67,6.88-6,6.88s-6-2.56-6-6.88"/><path class="cls-6" d="M216.31,40.7l1.16-1.6a.6.6,0,0,1,.94-.05l1.41,1.47c.82,1,.13,2.17-1.7,2.28s-2.51-1.07-1.81-2.1M218,37.57c0-.76.35-1.38.78-1.38s.78.62.78,1.38-.35,1.38-.78,1.38-.78-.62-.78-1.38m-1.95.34c-.17-.72,0-1.37.47-1.45s.91.42,1.07,1.14-.06,1.37-.48,1.45-.9-.43-1.06-1.14m3.64.42c.33-.65.91-1,1.3-.82s.43.89.1,1.55-.91,1-1.29.83-.43-.9-.11-1.56m-5,1.13c-.34-.65-.31-1.33.08-1.53s1,.18,1.33.83.3,1.34-.09,1.53-1-.18-1.32-.83"/><path class="cls-7" d="M171.43,54.88a.24.24,0,0,1-.27.27h-.92a.24.24,0,0,1-.26-.27v-2.4a.24.24,0,0,1,.26-.27h.92a.24.24,0,0,1,.27.27v.69H171v-.58h-.57v2.18H171v-.62h.44Z"/><path class="cls-7" d="M172.93,55.15h-1.15V52.21h.44v2.55h.71Z"/><path class="cls-7" d="M174,51.58l-.55.5h-.31l.32-.5H174Zm-.34,3.57h-.44V52.21h.44Z"/><path class="cls-7" d="M175.49,55.15h-.39l-.7-1.85a1,1,0,0,1,0,.21v1.64H174V52.21h.38l.71,1.81a1,1,0,0,1,0-.21v-1.6h.43Z"/><path class="cls-7" d="M176.29,55.15h-.44V52.21h.44Z"/><path class="cls-7" d="M178.1,54.88a.24.24,0,0,1-.27.27h-.92a.24.24,0,0,1-.26-.27v-2.4a.24.24,0,0,1,.26-.27h.92a.24.24,0,0,1,.27.27v.69h-.44v-.58h-.57v2.18h.57v-.62h.44Z"/><path class="cls-7" d="M179.93,55.15h-.43l-.09-.56h-.55l-.09.56h-.43l.57-2.94h.46Zm-.58-.94-.22-1.32-.21,1.32Z"/><path class="cls-7" d="M182.44,52.21l-.57,2.94h-.44l-.56-2.94h.45l.32,2c0,.06,0,.14,0,.26a1.23,1.23,0,0,1,0-.26l.33-2Z"/><path class="cls-7" d="M183.9,55.15h-1.21V52.21h1.2v.39h-.76v.86h.66v.38h-.66v.92h.77Z"/><path class="cls-7" d="M185.48,52.6H185v2.55h-.44V52.6h-.48v-.39h1.4Z"/><path class="cls-7" d="M186.93,55.15h-1.22V52.21h1.21v.39h-.77v.86h.66v.38h-.66v.92h.78Z"/><path class="cls-7" d="M188.73,55.15h-.46l-.48-1.37v-.26h.43v-.93h-.55v2.56h-.44V52.21h1.16a.24.24,0,0,1,.27.27v1.07a.23.23,0,0,1-.13.24.81.81,0,0,1-.28,0Z"/><path class="cls-7" d="M189.45,55.15H189V52.21h.44Z"/><path class="cls-7" d="M191.3,55.15h-.39l-.7-1.85a1,1,0,0,1,0,.21v1.64h-.43V52.21h.38L190.9,54a1,1,0,0,1,0-.21v-1.6h.43Z"/><path class="cls-7" d="M193.14,55.15h-.43l-.09-.56h-.55l-.09.56h-.43l.57-2.94h.46Zm-.58-.94-.22-1.32-.21,1.32Z"/><path class="cls-7" d="M194.89,55.15h-.46L194,53.78v-.26h.43v-.93h-.55v2.56h-.44V52.21h1.17a.24.24,0,0,1,.26.27v1.07a.23.23,0,0,1-.13.24.81.81,0,0,1-.28,0Z"/><path class="cls-7" d="M195.61,55.15h-.44V52.21h.44Z"/><path class="cls-7" d="M197.46,55.15H197l-.08-.56h-.55l-.09.56h-.44l.57-2.94h.47Zm-.58-.94-.22-1.32-.22,1.32Z"/><polygon class="cls-8" points="164.24 52.39 166.48 51.09 168.72 52.39 168.72 54.98 166.48 56.27 164.24 54.98 164.24 52.39"/><path class="cls-9" d="M167,54.63h.35l-.08.21-.26,0A2,2,0,0,0,167,54.63Zm0-.26h.48l-.08.23H167A1.37,1.37,0,0,0,167,54.37Zm-.11-.27h.68l-.08.23H167A1.22,1.22,0,0,0,166.89,54.1Zm-.37-.24h1.14l-.07.19h-.74A.53.53,0,0,0,166.52,53.86Zm0-.59h-.41l.41-.31.41.31Zm0,.25h-.75l.28-.21H167l.29.21Zm0,.26h-1.1l.28-.21h1.64l.28.21Zm0,.08a.51.51,0,0,0-.32.19h-.75l-.07-.19Zm-.37.24a1.22,1.22,0,0,0-.1.23h-.5l-.08-.23Zm-.11.27c0,.07,0,.14,0,.23h-.36l-.08-.23Zm0,.26a1,1,0,0,0,0,.25l-.27,0-.07-.21Zm.56-1.84L165,53.89l-.2-.24,1.65-1.28,1.66,1.28-.21.24Z"/><path class="cls-7" d="M207,54.88c0,.18-.08.27-.26.27h-.93a.24.24,0,0,1-.26-.27v-2.4a.24.24,0,0,1,.27-.27h.92c.18,0,.26.09.26.27v.63h-.44v-.52H206v2.18h.57V54h-.32v-.38H207Z"/><path class="cls-7" d="M208.86,55.15h-.46l-.48-1.37v-.26h.43v-.93h-.56v2.56h-.43V52.21h1.16a.24.24,0,0,1,.27.27v1.07a.25.25,0,0,1-.13.24.85.85,0,0,1-.28,0Z"/><path class="cls-7" d="M210.61,54.88a.24.24,0,0,1-.27.27h-1a.24.24,0,0,1-.26-.27v-2.4a.24.24,0,0,1,.26-.27h1a.24.24,0,0,1,.27.27Zm-.44-.11V52.59h-.6v2.18Z"/><path class="cls-7" d="M212.45,54.88a.24.24,0,0,1-.27.27h-1a.24.24,0,0,1-.27-.27v-2.4a.24.24,0,0,1,.27-.27h1a.24.24,0,0,1,.27.27Zm-.44-.11V52.59h-.61v2.18Z"/><path class="cls-7" d="M214.58,55.15h-.43V53.7a2.23,2.23,0,0,1,0-.32l-.38,1.5h-.22l-.38-1.5a2.07,2.07,0,0,1,0,.32v1.45h-.42V52.21h.42l.46,1.62s0,.07,0,.14a.82.82,0,0,1,0-.14l.46-1.62h.42Z"/><path class="cls-7" d="M215.38,55.15h-.44V52.21h.44Z"/><path class="cls-7" d="M217.23,55.15h-.39l-.7-1.85a1,1,0,0,1,0,.21v1.64h-.43V52.21h.38l.71,1.81a1,1,0,0,1,0-.21v-1.6h.43Z"/><path class="cls-7" d="M219,54.88a.24.24,0,0,1-.27.27h-.93a.24.24,0,0,1-.26-.27v-2.4a.24.24,0,0,1,.27-.27h.92a.24.24,0,0,1,.27.27v.63h-.44v-.52H218v2.18h.58V54h-.33v-.38H219Z"/><polygon class="cls-8" points="199.9 52.39 202.15 51.09 204.39 52.39 204.39 54.98 202.15 56.27 199.9 54.98 199.9 52.39"/><path class="cls-10" d="M201,52.35c.13,0,.2.1.22.21.2,0,.41.16.74.62a.83.83,0,0,0,.68.31c0-.05.06-.07.08-.06a1.87,1.87,0,0,0-.08-.59c.27,0,.25.29.39.65.5.32.74,1,.45,1.3a.73.73,0,0,1,0-.24.4.4,0,0,0,0-.23s0,0,0,0a.14.14,0,0,0,0,.11v.47s0,0-.06,0,0,0-.06,0h0v-.5s0-.13-.06-.12-.05.14-.05.14v.35a.25.25,0,0,1,0,.08.1.1,0,0,1,0,0,.24.24,0,0,0-.15,0v-.59s-.1,0-.1.16,0,.26,0,.3a.58.58,0,0,1,0,.1h-.06s-.09,0-.09-.16,0-.3,0-.31,0-.09,0-.09a.12.12,0,0,0-.07.1c0,.07,0,.2,0,.2s0,.1,0,.12,0,0,0,.05l0,0h-.07a.1.1,0,0,1-.06-.1c0-.09,0-.26,0-.29s0-.1,0-.1-.07,0-.07.1,0,.24,0,.24,0,.15,0,.15-.09,0-.1,0a.44.44,0,0,1,0-.16,1.11,1.11,0,0,0,0-.19.1.1,0,0,0-.05-.1s-.06,0-.06.13,0,.21,0,.23,0,.14-.06.13-.09,0-.09-.09a2.23,2.23,0,0,1,0-.26s0-.14-.06-.13,0,.21,0,.21a1,1,0,0,1,0,.24c0,.05,0,.11-.14.1s0,0,0-.16c0-.27,0-.35-.05-.4s-.09.16,0,.37,0,.24-.16.23v-.6c-.08,0-.11.08-.11.22a.76.76,0,0,1,0,.4c-.09,0-.13,0-.13-.15a1.13,1.13,0,0,0,0-.47c-.07,0-.09.13-.06.33v.2c-.16-.14-.19-.36-.09-.67a1.42,1.42,0,0,0,.08-.77c-.13,0-.13.23-.21.47s-.24.16-.36-.1-.12-.49,0-.62a.7.7,0,0,0,.15-.15s0,0,0,0-.11.13-.18.11a.57.57,0,0,1,.25-.32A.4.4,0,0,0,201,52.35Z"/><path class="cls-7" d="M229,53.81a.24.24,0,0,1-.27.27h-.71v1.07h-.44V52.21h1.15a.24.24,0,0,1,.27.27Zm-.44-.1V52.59h-.54v1.12Z"/><path class="cls-7" d="M230.58,55.15h-1.22V52.21h1.21v.39h-.77v.86h.66v.38h-.66v.92h.78Z"/><path class="cls-7" d="M232.15,52.6h-.48v2.55h-.44V52.6h-.48v-.39h1.4Z"/><path class="cls-7" d="M233.79,54.88a.24.24,0,0,1-.27.27h-.89a.24.24,0,0,1-.26-.27v-.7h.44v.6h.54V54.2l-.88-.83a.31.31,0,0,1-.1-.24v-.65a.24.24,0,0,1,.26-.27h.89a.24.24,0,0,1,.27.27v.65h-.44v-.55h-.54v.53l.88.83a.33.33,0,0,1,.1.24Z"/><path class="cls-7" d="M235.62,55.15h-.45V53.83h-.59v1.32h-.44V52.21h.44v1.21h.59V52.21h.45Z"/><path class="cls-7" d="M237.45,54.88a.24.24,0,0,1-.27.27h-1a.24.24,0,0,1-.27-.27v-2.4a.24.24,0,0,1,.27-.27h1a.24.24,0,0,1,.27.27Zm-.44-.11V52.59h-.61v2.18Z"/><path class="cls-7" d="M239.22,53.81a.24.24,0,0,1-.27.27h-.71v1.07h-.44V52.21H239a.24.24,0,0,1,.27.27Zm-.44-.1V52.59h-.54v1.12Z"/><polygon class="cls-8" points="221.79 52.39 224.03 51.09 226.28 52.39 226.28 54.98 224.03 56.27 221.79 54.98 221.79 52.39"/><path class="cls-11" d="M223.72,54.05q0-.33-.3-.21c-.14.07-.15.19,0,.33,0,.09-.09.12-.1.18a.17.17,0,0,0,.15.19s.2.06.23-.11a.15.15,0,0,1,.12-.14h.46a.15.15,0,0,1,.12.14c0,.17.23.11.23.11a.16.16,0,0,0,.14-.19c0-.06-.07-.09-.09-.18s.12-.26,0-.33-.28,0-.29.21h-.62Zm2,.05c-.24.43-.81.65-1.72.65s-1.47-.22-1.71-.65a1.34,1.34,0,0,0,.12-.46c.08-.46.2-.72.36-.79-.47.45.1.8,1.23.82s1.71-.37,1.24-.82c.17.07.29.33.36.79A1.34,1.34,0,0,0,225.75,54.1Zm-.56-.81a3,3,0,0,0-2.31,0c-.13-.39.24-.62,1.13-.67h.06C225,52.67,225.32,52.9,225.19,53.29Z"/></svg>